<svg xmlns="http://www.w3.org/2000/svg" viewBox="0 0 258.34 106.65">
  <title>logo</title>
  <g>
    <path d="M43.36,93.46l.59,2.27.66-2.27L78.15,0H88L48.34,106.65H39.7L0,0H9.81Z"/>
    <path d="M107.36,76.68H60l-10.74,30H40L79.5,0h8.38l39.46,106.64h-9.17ZM62.74,69.07h41.82L83.65,11Z"/>
    <path d="M127.7,99h52.66v7.62H118.62V0h9.08Z"/>
    <path d="M168.47,58.16,206.1,0h12l-44.48,66.5v40.14h-10.4V66.51L118.83,0h12.35Z"/>
    <path d="M238.36,76.68H191l-10.74,30H171L210.5,0h8.38l39.46,106.64h-9.17Zm-44.62-7.62h41.82L214.65,11Z"/>
  </g>
</svg>
