<svg xmlns="http://www.w3.org/2000/svg" viewBox="0 0 694.68 126.67">
  <defs>
    <style>
      .a, .b {
        fill: #eee;
        stroke: #eee;
        stroke-miterlimit: 10;
      }

      .b {
        stroke-width: 2px;
      }
    </style>
  </defs>
  <g>
    <g>
      <path class="a" d="M.5,50.32l6.06-1V6.67L.5,5.63V.91H19.93V5.63l-6.06,1V25.28h5.91L32,7.67A23.73,23.73,0,0,1,37.24,2,9.89,9.89,0,0,1,45.36.93,13.74,13.74,0,0,1,47.9,2.17L46.83,7.34,45.06,7a9,9,0,0,0-1.5-.13,4.7,4.7,0,0,0-3,.93A15.32,15.32,0,0,0,37.8,11L26.17,27.17l18,22.22,5.09.93V55H31.48V50.32l4.12-.52L20.86,31.45h-7V49.28l6.06,1V55H.5Z"/>
      <path class="a" d="M81.34,55q-.33-1.63-.52-2.94t-.26-2.6A17.71,17.71,0,0,1,75.26,54a13.53,13.53,0,0,1-6.78,1.8q-6.28,0-9.55-3.06t-3.27-8.64a10,10,0,0,1,4.63-8.82q4.63-3.1,12.69-3.1h7.54V27.47a7.24,7.24,0,0,0-2.23-5.59,8.79,8.79,0,0,0-6.2-2.06,15.21,15.21,0,0,0-4.85.71,9.11,9.11,0,0,0-3.4,1.93l-.78,4.24H57.41v-7.8a21.72,21.72,0,0,1,6.65-3.51,26.3,26.3,0,0,1,8.47-1.32q6.83,0,11.07,3.49t4.23,10V46.9q0,.78,0,1.52T88,49.91l3,.41V55ZM69.56,49.65a13,13,0,0,0,6.65-1.75,10.83,10.83,0,0,0,4.31-4.2V37.09h-7.8a11.13,11.13,0,0,0-7.11,2.08A6.26,6.26,0,0,0,63,44.23a5,5,0,0,0,1.63,4A7.47,7.47,0,0,0,69.56,49.65Z"/>
      <path class="a" d="M96.12,65.73l6.06-1V20.56l-6.06-1V14.8h12.33l.67,4.9a13.53,13.53,0,0,1,4.89-4.2,14.65,14.65,0,0,1,6.67-1.45A13.36,13.36,0,0,1,132.29,20q4.14,5.93,4.14,15.66v.78q0,8.69-4.16,14a13.76,13.76,0,0,1-11.48,5.33,16,16,0,0,1-6.52-1.24,12.61,12.61,0,0,1-4.77-3.7V64.69l6.06,1v4.72H96.12Zm33-30.09q0-6.87-2.67-11.26a8.73,8.73,0,0,0-8-4.38,9.79,9.79,0,0,0-5.35,1.41,10.62,10.62,0,0,0-3.6,3.86V44.86a9.56,9.56,0,0,0,9,5.2,9,9,0,0,0,7.88-3.79,16.7,16.7,0,0,0,2.67-9.84Z"/>
      <path class="a" d="M143.38,50.32l6.06-1V20.56l-6.06-1V14.8H188v4.72l-6.06,1V49.28l6.06,1V55H168.6V50.32l6.06-1V20.6H156.75V49.28l6.06,1V55H143.38Z"/>
      <path class="a" d="M195,34.53q0-8.92,4.83-14.69t13.11-5.78q8.32,0,13.17,5.76t4.85,14.71v.82q0,9-4.83,14.71T213,55.78q-8.36,0-13.19-5.74T195,35.35Zm7.32.82A19.06,19.06,0,0,0,205,45.9a9.69,9.69,0,0,0,15.92,0,19,19,0,0,0,2.71-10.55v-.82A19,19,0,0,0,220.91,24a8.91,8.91,0,0,0-8-4.2A8.82,8.82,0,0,0,205,24a19.21,19.21,0,0,0-2.67,10.51Z"/>
      <path class="a" d="M259.81,14.8q7.95,0,12.33,2.77a9.17,9.17,0,0,1,4.38,8.3,8,8,0,0,1-1.71,5A10.52,10.52,0,0,1,270,34.27a10.73,10.73,0,0,1,5.87,3.47A8.83,8.83,0,0,1,278,43.56q0,5.65-4.1,8.54T262.37,55H237.92V50.32l6.06-1V20.56l-6.06-1V14.8h21.88Zm-8.51,17h8.54q4.64,0,7-1.37a4.5,4.5,0,0,0,2.36-4.16,4.74,4.74,0,0,0-2.36-4.31q-2.36-1.45-7-1.45H251.3Zm0,5.61v12h11.07q4.09,0,6.17-1.54a5.19,5.19,0,0,0,2.08-4.44,5.2,5.2,0,0,0-2.08-4.42q-2.08-1.56-6.17-1.56Z"/>
      <path class="a" d="M326.79.91q8.47,0,13.24,3.66t4.77,11A10,10,0,0,1,342.52,22a13.52,13.52,0,0,1-6,4.22A12.56,12.56,0,0,1,344.17,31,14.12,14.12,0,0,1,347,39.73q0,7.43-4.83,11.35T329.09,55h-26V50.32l6.06-1V6.67l-6.06-1V.91h23.7Zm-10.33,23h12.22a9.48,9.48,0,0,0,6.37-2.34,8,8,0,0,0,2.43-6.17q0-4.38-2.75-6.56t-8-2.17H316.46Zm0,5.72V49.28h12.63q5,0,7.78-2.47a8.9,8.9,0,0,0,2.77-7,11.12,11.12,0,0,0-2.32-7.47q-2.32-2.71-7.11-2.71Z"/>
      <path class="a" d="M379.95,55q-.33-1.63-.52-2.94t-.26-2.6A17.71,17.71,0,0,1,373.87,54a13.53,13.53,0,0,1-6.78,1.8q-6.28,0-9.55-3.06t-3.27-8.64a10,10,0,0,1,4.63-8.82q4.63-3.1,12.69-3.1h7.54V27.47a7.25,7.25,0,0,0-2.23-5.59,8.79,8.79,0,0,0-6.2-2.06,15.21,15.21,0,0,0-4.85.71,9.11,9.11,0,0,0-3.4,1.93l-.78,4.24H356v-7.8a21.72,21.72,0,0,1,6.65-3.51,26.3,26.3,0,0,1,8.47-1.32q6.83,0,11.07,3.49t4.24,10V46.9q0,.78,0,1.52t.09,1.49l3,.41V55Zm-11.78-5.35a13,13,0,0,0,6.65-1.75,10.83,10.83,0,0,0,4.31-4.2V37.09h-7.8a11.13,11.13,0,0,0-7.11,2.08,6.26,6.26,0,0,0-2.62,5.05,5,5,0,0,0,1.63,4A7.47,7.47,0,0,0,368.17,49.65Z"/>
      <path class="a" d="M410.86,20.6V32q0,11.89-3.14,17.46T397,55h-2.08l.11-6.24,1.52,0A5.52,5.52,0,0,0,402,44.89q1.54-3.83,1.54-12.93V20.56l-6.06-1V14.8h40.38v4.72l-6.06,1V49.28l6.06,1V55H418.44V50.32l6.06-1V20.6Z"/>
      <path class="a" d="M462.87,55.78q-8.4,0-13.36-5.59t-5-14.51V34a20.61,20.61,0,0,1,5.11-14.28,15.74,15.74,0,0,1,12.09-5.7q8.1,0,12.28,4.9T478.21,32v4.57H452.13l-.11.19A15.89,15.89,0,0,0,455,46.32a9.35,9.35,0,0,0,7.91,3.73A18.42,18.42,0,0,0,469.39,49a15,15,0,0,0,4.85-2.92l2.86,4.76a17.55,17.55,0,0,1-5.7,3.51A22.8,22.8,0,0,1,462.87,55.78Zm-1.11-36a7.93,7.93,0,0,0-6.28,3.1,14.69,14.69,0,0,0-3.2,7.78l.07.19h18.54v-1a11.22,11.22,0,0,0-2.3-7.21Q466.28,19.82,461.75,19.82Z"/>
      <path class="a" d="M485.71,19.52V14.8h19.43v4.72l-6.06,1V32.19H517V20.56l-6.06-1V14.8h19.47v4.72l-6.06,1V49.28l6.06,1V55H510.9V50.32l6.06-1V37.91H499.09V49.28l6.06,1V55H485.71V50.32l6.06-1V20.56Z"/>
      <path class="a" d="M574.87,14.8v12h-6.28L568,20.49h-8.62V49.28l6.06,1V55H546V50.32l6.06-1V20.49h-8.47l-.56,6.28h-6.24v-12Z"/>
      <path class="a" d="M601,14.8v4.72l-6.06,1v22.7l.22.07L612.88,14.8h13.37v4.72l-6.06,1V49.28l6.06,1V55H606.82V50.32l6.06-1V26.54l-.22-.07L594.93,55H581.6V50.32l6.06-1V20.56l-6.06-1V14.8H601Z"/>
      <path class="a" d="M633.46,19.52V14.8h19.43v4.72l-6.06,1V32.19H664.7V20.56l-6.06-1V14.8h19.47v4.72l-6.06,1V49.28l6.06,1V55H658.65V50.32l6.06-1V37.91H646.83V49.28l6.06,1V55H633.46V50.32l6.06-1V20.56Z"/>
      <path class="a" d="M264.86,112.74l4-.69V83.64l-4-.69V79.8h13V83l-4,.69V95.75h3.74L287.59,83.3l-2.7-.35V79.8h11.44V83l-3.39.62-11,13.67,12,14.88,3.39.62v3.12H285.51v-3.12l2.75-.35L278,99.59h-4.21v12.46l4,.69v3.12h-13Z"/>
      <path class="a" d="M318.75,115.86q-.22-1.09-.35-2t-.17-1.73a11.79,11.79,0,0,1-3.53,3,9,9,0,0,1-4.52,1.2q-4.19,0-6.36-2a7.51,7.51,0,0,1-2.18-5.76,6.67,6.67,0,0,1,3.08-5.88q3.08-2.07,8.46-2.07h5V97.51a4.83,4.83,0,0,0-1.49-3.73,5.86,5.86,0,0,0-4.14-1.37,10.14,10.14,0,0,0-3.23.47,6.07,6.07,0,0,0-2.27,1.29L306.56,97H302.8v-5.2a14.5,14.5,0,0,1,4.43-2.34,17.53,17.53,0,0,1,5.65-.88,11.23,11.23,0,0,1,7.38,2.33,8.15,8.15,0,0,1,2.82,6.66v12.9q0,.52,0,1t.06,1l2,.27v3.12Zm-7.85-3.57a8.67,8.67,0,0,0,4.43-1.16,7.22,7.22,0,0,0,2.87-2.8v-4.41H313a7.42,7.42,0,0,0-4.74,1.39,4.17,4.17,0,0,0-1.75,3.37,3.33,3.33,0,0,0,1.09,2.69A5,5,0,0,0,310.9,112.3Z"/>
      <path class="a" d="M329.2,92.21V89.07h8.4l.47,3.89a9.37,9.37,0,0,1,2.81-3.22,6.53,6.53,0,0,1,3.83-1.16,8.35,8.35,0,0,1,1.18.09,6.61,6.61,0,0,1,.93.19l-.64,4.53-2.77-.15a5.58,5.58,0,0,0-3.24.9,5.84,5.84,0,0,0-2,2.54v15.38l4,.69v3.12h-13v-3.12l4-.69V92.91Z"/>
      <path class="a" d="M349.58,123l4-.69V92.91l-4-.69V89.07h8.22l.45,3.27a9,9,0,0,1,3.26-2.8,9.76,9.76,0,0,1,4.45-1,8.91,8.91,0,0,1,7.74,4q2.76,4,2.76,10.44v.52a14.77,14.77,0,0,1-2.77,9.35,9.17,9.17,0,0,1-7.65,3.55,10.63,10.63,0,0,1-4.35-.83,8.41,8.41,0,0,1-3.18-2.46v9.24l4,.69v3.15h-13Zm22-20.06a14.23,14.23,0,0,0-1.78-7.5,5.82,5.82,0,0,0-5.3-2.92,6.53,6.53,0,0,0-3.57.94,7.09,7.09,0,0,0-2.4,2.58V109.1a6.37,6.37,0,0,0,6,3.47,6,6,0,0,0,5.25-2.53,11.14,11.14,0,0,0,1.78-6.56Z"/>
      <path class="a" d="M380.91,102.22a14.75,14.75,0,0,1,3.22-9.79,11.9,11.9,0,0,1,17.52,0,14.7,14.7,0,0,1,3.23,9.81v.54a14.68,14.68,0,0,1-3.22,9.81,12,12,0,0,1-17.54,0,14.69,14.69,0,0,1-3.22-9.8Zm4.88.54a12.71,12.71,0,0,0,1.79,7,6.46,6.46,0,0,0,10.61,0,12.64,12.64,0,0,0,1.81-7v-.54a12.67,12.67,0,0,0-1.81-7,5.94,5.94,0,0,0-5.32-2.8,5.88,5.88,0,0,0-5.3,2.8,12.8,12.8,0,0,0-1.78,7Z"/>
      <path class="a" d="M418.16,92.21l-3.22.5L420.47,108l.45,1.93h.15l.47-1.93,5.35-15.26-3.24-.5V89.07H434v3.15l-2.2.37-9,23.28H419.1L410,92.58l-2.2-.37V89.07h10.35Z"/>
      <path class="a" d="M460.24,83l-3.29.52L465,106.9l.82,2.85H466l.82-2.85,8-23.45-3.24-.5V79.8H483V83l-2.9.4L468,115.86h-4.19L451.72,83.35l-2.87-.4V79.8h11.39Z"/>
      <path class="a" d="M502.64,115.86q-.22-1.09-.35-2t-.17-1.73a11.79,11.79,0,0,1-3.53,3,9,9,0,0,1-4.52,1.2q-4.19,0-6.37-2a7.51,7.51,0,0,1-2.18-5.76,6.67,6.67,0,0,1,3.08-5.88q3.08-2.07,8.46-2.07h5V97.51a4.83,4.83,0,0,0-1.49-3.73,5.86,5.86,0,0,0-4.14-1.37,10.14,10.14,0,0,0-3.23.47A6.07,6.07,0,0,0,491,94.17L490.46,97h-3.76v-5.2a14.49,14.49,0,0,1,4.43-2.34,17.53,17.53,0,0,1,5.65-.88,11.23,11.23,0,0,1,7.38,2.33A8.15,8.15,0,0,1,507,97.56v12.9q0,.52,0,1t.06,1l2,.27v3.12Zm-7.85-3.57a8.67,8.67,0,0,0,4.43-1.16,7.22,7.22,0,0,0,2.87-2.8v-4.41h-5.2a7.42,7.42,0,0,0-4.74,1.39,4.17,4.17,0,0,0-1.75,3.37,3.33,3.33,0,0,0,1.09,2.69A5,5,0,0,0,494.79,112.3Z"/>
      <path class="a" d="M512.42,80.37V77.23h8.92v34.82l4,.69v3.12h-13v-3.12l4-.69v-31Z"/>
      <path class="a" d="M541.3,116.38a11.3,11.3,0,0,1-8.9-3.73,14,14,0,0,1-3.31-9.67V101.9a13.74,13.74,0,0,1,3.41-9.52,10.49,10.49,0,0,1,8.06-3.8q5.4,0,8.18,3.27a13,13,0,0,1,2.79,8.72v3H534.14l-.07.12a10.59,10.59,0,0,0,2,6.35,6.23,6.23,0,0,0,5.27,2.49,12.27,12.27,0,0,0,4.35-.71,10,10,0,0,0,3.23-1.94l1.91,3.17a11.7,11.7,0,0,1-3.8,2.34A15.19,15.19,0,0,1,541.3,116.38Zm-.74-24a5.28,5.28,0,0,0-4.19,2.07,9.79,9.79,0,0,0-2.13,5.19l0,.12h12.36v-.64a7.48,7.48,0,0,0-1.54-4.8A5.47,5.47,0,0,0,540.56,92.41Z"/>
      <path class="a" d="M555.62,112.74l4-.69V92.91l-4-.69V89.07H564l.35,4a9.73,9.73,0,0,1,3.36-3.31,9,9,0,0,1,4.59-1.18A8.75,8.75,0,0,1,579,91.11q2.38,2.54,2.38,7.84v13.1l4,.69v3.12h-13v-3.12l4-.69V99q0-3.54-1.4-5a5.6,5.6,0,0,0-4.27-1.49,6.87,6.87,0,0,0-3.73,1,7.41,7.41,0,0,0-2.59,2.77v15.73l4,.69v3.12h-13Z"/>
      <path class="a" d="M597.5,82.6v6.46h5.08v3.62H597.5V109a3.65,3.65,0,0,0,.78,2.65,2.82,2.82,0,0,0,2.07.77,10.67,10.67,0,0,0,1.45-.11c.54-.07,1-.15,1.35-.24l.67,3.34a6.25,6.25,0,0,1-2,.73,12.84,12.84,0,0,1-2.67.28,6.32,6.32,0,0,1-4.73-1.8q-1.76-1.8-1.76-5.63V92.68h-4.24V89.07h4.24V82.6Z"/>
      <path class="a" d="M607.55,112.74l4-.69V92.91l-4-.69V89.07h8.92v23l4,.69v3.12h-13Zm8.92-30.54h-4.88v-5h4.88Z"/>
      <path class="a" d="M623.5,112.74l4-.69V92.91l-4-.69V89.07h8.4l.35,4a9.73,9.73,0,0,1,3.36-3.31,9,9,0,0,1,4.59-1.18,8.75,8.75,0,0,1,6.71,2.54q2.38,2.54,2.38,7.84v13.1l4,.69v3.12h-13v-3.12l4-.69V99q0-3.54-1.4-5a5.6,5.6,0,0,0-4.27-1.49,6.87,6.87,0,0,0-3.73,1,7.41,7.41,0,0,0-2.59,2.77v15.73l4,.69v3.12h-13Z"/>
      <path class="a" d="M668.85,116.38a11.3,11.3,0,0,1-8.9-3.73,14,14,0,0,1-3.31-9.67V101.9A13.74,13.74,0,0,1,660,92.37a10.49,10.49,0,0,1,8.06-3.8q5.4,0,8.18,3.27a13,13,0,0,1,2.79,8.72v3H661.69l-.07.12a10.59,10.59,0,0,0,2,6.35,6.23,6.23,0,0,0,5.27,2.49,12.27,12.27,0,0,0,4.35-.71,10,10,0,0,0,3.23-1.94l1.91,3.17a11.7,11.7,0,0,1-3.8,2.34A15.19,15.19,0,0,1,668.85,116.38Zm-.74-24a5.28,5.28,0,0,0-4.19,2.07,9.79,9.79,0,0,0-2.13,5.19l0,.12H674.2v-.64a7.48,7.48,0,0,0-1.54-4.8A5.47,5.47,0,0,0,668.11,92.41Z"/>
    </g>
    <line class="b" x1="693.68" y1="14.78" x2="693.68" y2="115.78"/>
  </g>
</svg>
